:version 1.10
:name ASF
:units
  mass 1
  length 1
  angle deg
:documentation
  ASF file generated by Kaydara
:root
  axis xyz
  order  tx ty tz rx ry rz
  position 0 0 0
  orientation 0 0 0
:bonedata
  begin
    id 1
    name RightUpLegDummy
    direction -1 2.30186e-007 8.31532e-007
    length 4.04083
    axis 0 0 0 xyz
  end
  begin
    id 2
    name RightUpLeg
    direction -0.000919234 -0.999985 0.00544864
    length 17.4221
    axis -3.80308 -0.00076134 -0.0523649 xyz
    dof rx ry rz
  end
  begin
    id 3
    name RightLeg
    direction -0.000919271 -0.999984 -0.00555045
    length 17.1239
    axis 4.00314 0.0181274 -0.183583 xyz
    dof rx ry rz
  end
  begin
    id 4
    name RightFoot
    direction -2.57843e-005 -4.04509e-007 1
    length 6.72091
    axis 8.18909e-005 -0.122003 -0.403008 xyz
    dof rx ry rz
  end
  begin
    id 5
    name RightToes
    direction 0.00116825 -0.014069 0.9999
    length 3.85082
    axis 0.000514414 0.540638 -0.356797 xyz
    dof rx ry rz
  end
  begin
    id 6
    name SpineDummy
    direction 0.0168869 0.966876 -0.254689
    length 6.99894
    axis 0 0 0 xyz
  end
  begin
    id 7
    name Spine
    direction -0.0132008 0.999903 0.00446247
    length 11.1999
    axis -0.00148109 0.00725429 0.756411 xyz
    dof rx ry rz
  end
  begin
    id 8
    name Spine1
    direction 0 0 0
    length 0
    axis -0.000934958 0.0245693 1.46543 xyz
    dof rx ry rz
  end
  begin
    id 9
    name HEadDummy
    direction -0.0255732 0.999672 0.00128215
    length 3.43865
    axis -0.000934958 0.0245693 1.46543 xyz
  end
  begin
    id 10
    name HEad
    direction -0.0472656 0.980052 0.19304
    length 5.12695
    axis -0.000934954 0.0245693 1.46543 xyz
    dof rx ry rz
  end
  begin
    id 11
    name LeftShoulder1Dummy
    direction 0.953098 0.301717 -0.023914
    length 3.68488
    axis -0.000934958 0.0245693 1.46543 xyz
  end
  begin
    id 12
    name LeftShoulder1
    direction 0.962466 0.271167 0.0112566
    length 3.13809
    axis -0.000934958 0.0245693 1.46543 xyz
    dof rx ry rz
  end
  begin
    id 13
    name LeftArm
    direction 0.999943 0.00455037 -0.00961766
    length 11.3419
    axis -23.1648 0.685459 1.22814 xyz
    dof rx ry rz
  end
  begin
    id 14
    name LeftForeArm
    direction 0.999332 0.0131969 0.0340885
    length 8.70632
    axis -9.90633 0.618216 0.0826942 xyz
    dof rx ry rz
  end
  begin
    id 15
    name LeftHand
    direction 0.994373 -0.0366703 0.0993905
    length 5.32135
    axis 0.00675269 0.680415 0.445699 xyz
    dof rx ry rz
  end
  begin
    id 16
    name RightShoulderDummy
    direction -0.967298 0.252589 -0.0230903
    length 3.68488
    axis -0.000934958 0.0245693 1.46543 xyz
  end
  begin
    id 17
    name RightShoulder
    direction -0.975062 0.221602 0.0120823
    length 3.13809
    axis 0.216257 0.0246515 1.45863 xyz
    dof rx ry rz
  end
  begin
    id 18
    name RightArm
    direction -0.99886 -0.00851186 -0.0469687
    length 10.3947
    axis -23.196 0.23503 -0.532632 xyz
    dof rx ry rz
  end
  begin
    id 19
    name RightForeArm
    direction -0.99909 0.00114866 0.0426317
    length 8.68355
    axis -9.91764 -0.134943 0.610517 xyz
    dof rx ry rz
  end
  begin
    id 20
    name RightHand
    direction -0.992888 -0.0489538 0.10852
    length 5.28593
    axis -0.00275396 -0.197403 0.246414 xyz
    dof rx ry rz
  end
  begin
    id 21
    name LeftUpLegDummy
    direction 1 -2.30186e-007 -8.31532e-007
    length 4.04083
    axis 0 0 0 xyz
  end
  begin
    id 22
    name LeftUpLeg
    direction -0.000920097 -1 2.79241e-006
    length 17.4221
    axis -3.48782 0.00143434 -0.0532288 xyz
    dof rx ry rz
  end
  begin
    id 23
    name LeftLeg
    direction -0.000920097 -1 2.7912e-006
    length 17.1239
    axis 3.68162 -0.00806512 -0.0529896 xyz
    dof rx ry rz
  end
  begin
    id 24
    name LeftFoot
    direction -2.57845e-005 -3.987e-007 1
    length 6.72091
    axis 3.02372e-005 -0.00147829 -0.214229 xyz
    dof rx ry rz
  end
  begin
    id 25
    name LeftToes
    direction 0.00813577 -0.00488255 0.999955
    length 3.85048
    axis 3.89895e-005 -0.0014783 -0.214229 xyz
    dof rx ry rz
  end
:hierarchy
  begin
    root RightUpLegDummy SpineDummy LeftUpLegDummy
    RightUpLegDummy RightUpLeg
    RightUpLeg RightLeg
    RightLeg RightFoot
    RightFoot RightToes
    SpineDummy Spine
    Spine Spine1
    Spine1 HEadDummy LeftShoulder1Dummy RightShoulderDummy
    HEadDummy HEad
    LeftShoulder1Dummy LeftShoulder1
    LeftShoulder1 LeftArm
    LeftArm LeftForeArm
    LeftForeArm LeftHand
    RightShoulderDummy RightShoulder
    RightShoulder RightArm
    RightArm RightForeArm
    RightForeArm RightHand
    LeftUpLegDummy LeftUpLeg
    LeftUpLeg LeftLeg
    LeftLeg LeftFoot
    LeftFoot LeftToes
  end

:SAMPLES-PER-SECOND 30
:FULLY-SPECIFIED
:DEGREES
66
root  -44.3235 34.8135 36.4518 -169.876 9.25258 -179.999
RightUpLeg  -10.1581 -14.366 2.83956
RightLeg  6.49953 -1.61395 -0.078171
RightFoot  3.03306 0.0151086 0.0412121
RightToes  -21.4492 -0.0873622 -0.185173
Spine  -2.96302 -0.720188 -0.105764
Spine1  -5.9935 -1.3808 0.472913
HEad  -59.7772 -14.128 5.15544
LeftShoulder1  -1.94126e-019 -3.10601e-018 -2.51263e-017
LeftArm  -12.6587 24.8632 -81.9815
LeftForeArm  34.8375 -15.0546 -2.58563
LeftHand  -0.302019 -1.04053 5.78963
RightShoulder  -4.96962e-017 0 -2.36833e-017
RightArm  -26.5846 -25.236 78.9226
RightForeArm  56.7483 14.7299 1.14808
RightHand  -0.429711 0.103523 -9.13456
LeftUpLeg  -7.15183 4.35596 -0.921144
LeftLeg  5.18841 16.2317 0.42051
LeftFoot  2.87933 -0.0193315 0.979279
LeftToes  -18.7553 1.46665e-006 1.03344e-007
67
root  -44.3258 34.8058 36.4085 -169.863 8.72119 179.979
RightUpLeg  -10.1098 -14.7662 2.82712
RightLeg  6.60366 -1.73552 -0.0872941
RightFoot  2.88878 0.0151991 0.0399181
RightToes  -21.5242 -0.0873622 -0.185173
Spine  -2.95583 -0.652544 -0.106061
Spine1  -5.97758 -1.25382 0.465745
HEad  -57.0762 -7.84894 4.81886
LeftShoulder1  -1.94126e-019 -3.10601e-018 -2.51263e-017
LeftArm  -12.5287 24.807 -81.917
LeftForeArm  34.6582 -15.6025 -2.67364
LeftHand  -0.298963 -0.947142 5.81651
RightShoulder  -4.96962e-017 0 -2.36833e-017
RightArm  -26.5621 -25.6521 78.9599
RightForeArm  56.4957 14.7639 1.14775
RightHand  -0.436675 0.108552 -9.27379
LeftUpLeg  -7.2362 3.8641 -0.893878
LeftLeg  5.37157 16.1789 0.470224
LeftFoot  2.7886 -0.016893 0.948956
LeftToes  -18.742 1.46665e-006 1.03344e-007
68
root  -44.3265 34.7995 36.3628 -169.827 8.09937 179.945
RightUpLeg  -10.0742 -15.1622 2.81834
RightLeg  6.70582 -1.95159 -0.101773
RightFoot  2.72924 0.0152445 0.0392706
RightToes  -21.5269 -0.0873622 -0.185173
Spine  -2.94414 -0.605315 -0.101189
Spine1  -5.95194 -1.1685 0.470553
HEad  -54.8817 -2.63084 4.98406
LeftShoulder1  -1.94126e-019 -3.10601e-018 -2.51263e-017
LeftArm  -12.48 24.7768 -81.9086
LeftForeArm  34.6323 -16.1787 -2.76179
LeftHand  -0.298395 -0.981851 5.8018
RightShoulder  -4.96962e-017 0 -2.36833e-017
RightArm  -26.7963 -25.9214 78.8884
RightForeArm  56.8327 14.5781 1.16701
RightHand  -0.431938 0.145222 -9.11633
LeftUpLeg  -7.27903 3.52633 -0.872304
LeftLeg  5.39124 15.8973 0.467628
LeftFoot  2.78414 -0.0152402 0.931587
LeftToes  -18.767 1.46665e-006 1.03344e-007
69
root  -44.324 34.7886 36.3118 -169.732 7.41028 179.943
RightUpLeg  -10.072 -15.7163 2.8672
RightLeg  6.78885 -2.0655 -0.11077
RightFoot  2.56254 0.0152235 0.0395706
RightToes  -21.5569 -0.0873622 -0.185173
Spine  -2.95964 -0.573132 -0.090803
Spine1  -5.98024 -1.11367 0.485575
HEad  -53.7793 1.19905 5.20239
LeftShoulder1  -1.94126e-019 -3.10601e-018 -2.51263e-017
LeftArm  -12.2238 24.7821 -81.8901
LeftForeArm  34.4942 -16.7881 -2.86252
LeftHand  -0.300135 -0.987882 5.74939
RightShoulder  -4.96962e-017 0 -2.36833e-017
RightArm  -27.1967 -26.2517 78.8218
RightForeArm  57.0304 14.3612 1.19397
RightHand  -0.424973 0.0311903 -9.14807
LeftUpLeg  -7.17361 3.13211 -0.807272
LeftLeg  4.98305 15.6285 0.349929
LeftFoot  2.94515 -0.0165855 0.960449
LeftToes  -18.8921 1.46665e-006 1.03344e-007
70
root  -44.3173 34.7772 36.2578 -169.663 6.76506 179.925
RightUpLeg  -10.0934 -16.2663 2.8955
RightLeg  6.97687 -2.13673 -0.12165
RightFoot  2.34727 0.0150952 0.0414031
RightToes  -21.6661 -0.0873622 -0.185173
Spine  -2.95715 -0.528643 -0.0797476
Spine1  -5.97348 -1.03475 0.499565
HEad  -53.4279 3.11579 4.91723
LeftShoulder1  -1.94126e-019 -3.10601e-018 -2.51263e-017
LeftArm  -12.0633 24.7881 -81.9038
LeftForeArm  34.4078 -17.2375 -2.92779
LeftHand  -0.305072 -1.00588 5.66784
RightShoulder  -4.96962e-017 0 -2.36833e-017
RightArm  -27.6979 -26.4904 78.6582
RightForeArm  57.4746 14.1073 1.2239
RightHand  -0.4206 0.0238301 -9.16727
LeftUpLeg  -7.27861 3.11279 -0.761695
LeftLeg  5.07677 15.0274 0.361058
LeftFoot  2.92601 -0.0135724 0.920088
LeftToes  -19.2113 1.46665e-006 1.03344e-007
